# xmcd
#
# Track frame offsets: 
#        150
#        21525
#        37643
#        59799
#        75997
#        90315
#        107340
#        120386
#        140968
#        152735
#
# Disc length: 2221 seconds
#
# Revision: 0
# Processed by: cddbd v1.5.2PL0 Copyright (c) Steve Scherf et al.
# Submitted via: ExactAudioCopyFreeDBPlugin 1.0
#
DISCID=7508ab0a
DTITLE=Jay Kay and Blues Gang - Gone For Good
DYEAR=2018
DGENRE=Blues
TTITLE0=Highway Number Nine
TTITLE1=Trying To Forget
TTITLE2=Got The Blues
TTITLE3=She Makes A Fool Of Me
TTITLE4=Blues Boy
TTITLE5=I'm So In Love With You
TTITLE6=This Big Old Town
TTITLE7=Welfare Blues
TTITLE8=Saturn Twist
TTITLE9=Leavin' Blues
EXTD=
EXTT0=
EXTT1=
EXTT2=
EXTT3=
EXTT4=
EXTT5=
EXTT6=
EXTT7=
EXTT8=
EXTT9=
PLAYORDER=
